<?xml version="1.0" encoding="utf-8"?>
<!-- Generator: Adobe Illustrator 18.0.0, SVG Export Plug-In . SVG Version: 6.00 Build 0)  -->
<!DOCTYPE svg PUBLIC "-//W3C//DTD SVG 1.1//EN" "http://www.w3.org/Graphics/SVG/1.1/DTD/svg11.dtd">
<svg version="1.1" id="reactman" xmlns="http://www.w3.org/2000/svg" xmlns:xlink="http://www.w3.org/1999/xlink" x="0px" y="0px"
	 viewBox="0 0 390.2 461" enable-background="new 0 0 390.2 461" xml:space="preserve">
<path id="logo" fill="#E74C3C" d="M310.6,68.6l7.6-25.3C325.5,18.6,315.3,0,287.6,0h-119l-18,28.4C79.6,47.9,27.3,113,27.3,190.2
	c0,48,20.2,91.3,52.6,121.9l6.1-19.3c-25.2-26.8-40.7-62.9-40.7-102.5c0-61.4,37.2-114.3,90.2-137.4h109.2c8.7,0,12.4,5.5,9.8,14.6
	l-26.9,92c-3.3,11.6-8.7,14.2-15.6,14.2h-21.8l32.7-112.1h-61.1L69.7,374.4h61.1l45.5-153.5h18.2c7.6,0,9.8,4.4,8,10.9l-25.6,86H238
	l22.3-74.7c6.2-21.1,3.6-38.9-13.8-40.4c18.9,0,27.3-10.6,30.6-21.8l27.7-92.6c24.9,26.8,40.1,62.6,40.1,101.9
	c0,82.6-67.2,149.8-149.8,149.8c-15.5,0-30.4-2.4-44.5-6.7l-5.1,17.3c15.7,4.9,32.3,7.5,49.6,7.5c92.5,0,167.8-75.3,167.8-167.8
	C362.9,142.4,342.8,99.2,310.6,68.6z"/>
<g id="text">
	<path fill="#E74C3C" d="M8.5,461H0l12-40.7h15.4c3.6,0,4.8,2.5,4,5.2l-4.1,13.8c-0.3,1.2-1.5,2.4-3.6,2.4c1.3,0.2,2.5,1.6,1.6,4.5
		L21,461h-8.5l4.7-16c0.2-0.7,0.1-1.4-0.9-1.4h-2.8L8.5,461z M18.2,437.7c0.8,0,1.6-0.3,2-1.6l2.2-7.6c0.3-1.1,0-1.7-1.3-1.7h-2.6
		l-3.2,10.8H18.2z"/>
	<path fill="#E74C3C" d="M63,420.3h16l-2.2,7.3h-7.5l-2.6,9H74l-2.1,7.2h-7.3l-2.8,9.5h7.8l-2.8,7.7H51L63,420.3z"/>
	<path fill="#E74C3C" d="M96,461l17.9-40.7h12l-5.5,40.7H112l1.3-7.3h-5.5l-2.9,7.3H96z M117.4,429.2l-7.4,18.4h4.2L117.4,429.2z"/>
	<path fill="#E74C3C" d="M176.9,432.7l-8.2,1.9l2.2-7.7h-2.7c-0.9,0-1.3,0.2-1.6,1.2l-6.9,23.4c-0.4,1.3,0.1,1.8,1.2,1.8h9.4l-3,7.7
		h-11c-3.8,0-7-2.1-5.4-7.4l8.7-29.5c0.9-3,2.6-3.8,5.4-3.8h15.6L176.9,432.7z"/>
	<path fill="#E74C3C" d="M229.7,420.3l-2.2,7.3h-5.7l-9.7,33.4h-8.4l9.9-33.4h-5.8l2.2-7.3H229.7z"/>
	<path fill="#E74C3C" d="M262.4,438.4l-6.7,22.6h-8.5l12-40.7h8.4l1.5,14.2l9.5-14.2h8.7l-12,40.7h-8.5l6.7-22.6l-9.3,12.7
		L262.4,438.4z"/>
	<path fill="#E74C3C" d="M304.4,461l17.9-40.7h12l-5.5,40.7h-8.4l1.3-7.3h-5.5l-2.9,7.3H304.4z M325.8,429.2l-7.4,18.4h4.2
		L325.8,429.2z"/>
	<path fill="#E74C3C" d="M369.9,420.3h7.2l0.3,15.7l4.6-15.7h8.2l-12,40.7h-6.8l-0.7-16.2l-4.9,16.2h-8L369.9,420.3z"/>
</g>
</svg>
