<?xml version="1.0" encoding="utf-8"?>
<!-- Generator: Adobe Illustrator 18.0.0, SVG Export Plug-In . SVG Version: 6.00 Build 0)  -->
<!DOCTYPE svg PUBLIC "-//W3C//DTD SVG 1.1//EN" "http://www.w3.org/Graphics/SVG/1.1/DTD/svg11.dtd">
<svg version="1.1" id="reactman" xmlns="http://www.w3.org/2000/svg" xmlns:xlink="http://www.w3.org/1999/xlink" x="0px" y="0px"
	 viewBox="0 0 335.6 374.4" enable-background="new 0 0 335.6 374.4" xml:space="preserve">
<path id="logo" fill="#E74C3C" d="M283.4,68.6l7.6-25.3C298.2,18.6,288,0,260.4,0h-119l-18,28.4C52.4,47.9,0,113,0,190.2
	c0,48,20.2,91.3,52.6,121.9l6.1-19.3C33.5,265.9,18,229.8,18,190.2c0-61.4,37.2-114.3,90.2-137.4h109.2c8.7,0,12.4,5.5,9.8,14.6
	l-26.9,92c-3.3,11.6-8.7,14.2-15.6,14.2h-21.8l32.7-112.1h-61.1L42.4,374.4h61.1L149,220.8h18.2c7.6,0,9.8,4.4,8,10.9l-25.6,86h61.1
	l22.3-74.7c6.2-21.1,3.6-38.9-13.8-40.4c18.9,0,27.3-10.6,30.6-21.8l27.7-92.6c24.9,26.8,40.1,62.6,40.1,101.9
	c0,82.6-67.2,149.8-149.8,149.8c-15.5,0-30.4-2.4-44.5-6.7l-5.1,17.3c15.7,4.9,32.3,7.5,49.6,7.5c92.5,0,167.8-75.3,167.8-167.8
	C335.6,142.4,315.5,99.2,283.4,68.6z"/>
</svg>
